{"title":"Requiem from the Darkness disc 2 DVDRip Xvid AC3-KiNGDOM(Kingdom","uid":5845070,"size":1367131485,"categoryP":"video","categoryS":"movies","magnet":"?xt=urn:btih:3f740c44b903f0de9eae2e36f310142449759eaf&amp;dn=Requiem+from+the+Darkness+disc+2+DVDRip+Xvid+AC3-KiNGDOM%28Kingdom&amp;tr=udp%3A%2F%2Ftracker.openbittorrent.com%3A80&amp;tr=udp%3A%2F%2Fopen.demonii.com%3A1337&amp;tr=udp%3A%2F%2Ftracker.coppersurfer.tk%3A6969&amp;tr=udp%3A%2F%2Fexodus.desync.com%3A6969","seeders":0,"leechers":1,"uploader":"Treezluv2draw","files":6,"time":1285137646,"description":"Taking place in feudal Japan, a young writer named Momosuke wishes to write a book of 100 ghost stories and his encounters with three spiritual beings.\n\nWhile researching these old myths and legends he comes across a mysterious trio who call themselves the Ongyou. They are detectives who are investigating the legends to reveal their truths...and bring those in the wrong to justice. Each time Momosuke meets the Ongyou he must face horrible truths and battle with his morals, but he's seeing things he shouldn't be seeing...\n\nVideo\nID                               : 0\nFormat                           : MPEG-4 Visual\nFormat profile                   : Advanced Simple@L5\nFormat settings, BVOP            : Yes\nFormat settings, QPel            : No\nFormat settings, GMC             : No warppoints\nFormat settings, Matrix          : Default (H.263)\nCodec ID                         : XVID\nCodec ID/Hint                    : XviD\nDuration                         : 1h 13mn\nBit rate                         : 2 340 Kbps\nWidth                            : 720 pixels\nHeight                           : 416 pixels\nDisplay aspect ratio             : 16:9\nFrame rate                       : 23.976 fps\nColor space                      : YUV\nChroma subsampling               : 4:2:0\nBit depth                        : 8 bits\nScan type                        : Progressive\nBits/(Pixel*Frame)               : 0.326\nStream size                      : 1.20 GiB (94%)\nWriting library                  : XviD 1.2.1 (UTC 2008-12-04)\n\nAudio\nID                               : 1\nFormat                           : MPEG Audio\nFormat version                   : Version 1\nFormat profile                   : Layer 3\nCodec ID                         : 55\nCodec ID/Hint                    : MP3\nDuration                         : 1h 13mn\nBit rate mode                    : Constant\nBit rate                         : 128 Kbps\nChannel(s)                       : 2 channels\nSampling rate                    : 44.1 KHz\nStream size                      : 67.3 MiB (5%)\nAlignment                        : Split accross interleaves\nInterleave, duration             : 42 ms (1.00 video frame)\nInterleave, preload duration     : 500 ms\n","torrent":{"xt":"urn:btih:3f740c44b903f0de9eae2e36f310142449759eaf","amp;dn":"Requiem+from+the+Darkness+disc+2+DVDRip+Xvid+AC3-KiNGDOM%28Kingdom","amp;tr":["udp%3A%2F%2Ftracker.openbittorrent.com%3A80","udp%3A%2F%2Fopen.demonii.com%3A1337","udp%3A%2F%2Ftracker.coppersurfer.tk%3A6969","udp%3A%2F%2Fexodus.desync.com%3A6969"],"infoHash":"3f740c44b903f0de9eae2e36f310142449759eaf","infoHashBuffer":{"type":"Buffer","data":[63,116,12,68,185,3,240,222,158,174,46,54,243,16,20,36,73,117,158,175]},"announce":[],"urlList":[]}}